%TF.GenerationSoftware,KiCad,Pcbnew,(6.0.0)*%
%TF.CreationDate,2022-04-16T20:40:41+02:00*%
%TF.ProjectId,bewegungsmelder,62657765-6775-46e6-9773-6d656c646572,rev?*%
%TF.SameCoordinates,Original*%
%TF.FileFunction,Copper,L1,Top*%
%TF.FilePolarity,Positive*%
%FSLAX46Y46*%
G04 Gerber Fmt 4.6, Leading zero omitted, Abs format (unit mm)*
G04 Created by KiCad (PCBNEW (6.0.0)) date 2022-04-16 20:40:41*
%MOMM*%
%LPD*%
G01*
G04 APERTURE LIST*
G04 Aperture macros list*
%AMRoundRect*
0 Rectangle with rounded corners*
0 $1 Rounding radius*
0 $2 $3 $4 $5 $6 $7 $8 $9 X,Y pos of 4 corners*
0 Add a 4 corners polygon primitive as box body*
4,1,4,$2,$3,$4,$5,$6,$7,$8,$9,$2,$3,0*
0 Add four circle primitives for the rounded corners*
1,1,$1+$1,$2,$3*
1,1,$1+$1,$4,$5*
1,1,$1+$1,$6,$7*
1,1,$1+$1,$8,$9*
0 Add four rect primitives between the rounded corners*
20,1,$1+$1,$2,$3,$4,$5,0*
20,1,$1+$1,$4,$5,$6,$7,0*
20,1,$1+$1,$6,$7,$8,$9,0*
20,1,$1+$1,$8,$9,$2,$3,0*%
G04 Aperture macros list end*
%TA.AperFunction,ComponentPad*%
%ADD10O,1.700000X1.700000*%
%TD*%
%TA.AperFunction,ComponentPad*%
%ADD11R,1.700000X1.700000*%
%TD*%
%TA.AperFunction,SMDPad,CuDef*%
%ADD12RoundRect,0.237500X-0.237500X0.300000X-0.237500X-0.300000X0.237500X-0.300000X0.237500X0.300000X0*%
%TD*%
%TA.AperFunction,SMDPad,CuDef*%
%ADD13RoundRect,0.250000X0.450000X-0.350000X0.450000X0.350000X-0.450000X0.350000X-0.450000X-0.350000X0*%
%TD*%
%TA.AperFunction,ComponentPad*%
%ADD14R,2.000000X2.000000*%
%TD*%
%TA.AperFunction,ComponentPad*%
%ADD15O,2.000000X1.600000*%
%TD*%
%TA.AperFunction,SMDPad,CuDef*%
%ADD16RoundRect,0.150000X-0.150000X0.587500X-0.150000X-0.587500X0.150000X-0.587500X0.150000X0.587500X0*%
%TD*%
%TA.AperFunction,SMDPad,CuDef*%
%ADD17RoundRect,0.250000X-0.337500X-0.475000X0.337500X-0.475000X0.337500X0.475000X-0.337500X0.475000X0*%
%TD*%
%TA.AperFunction,SMDPad,CuDef*%
%ADD18RoundRect,0.250000X-0.350000X-0.450000X0.350000X-0.450000X0.350000X0.450000X-0.350000X0.450000X0*%
%TD*%
%TA.AperFunction,SMDPad,CuDef*%
%ADD19RoundRect,0.250000X-0.475000X0.337500X-0.475000X-0.337500X0.475000X-0.337500X0.475000X0.337500X0*%
%TD*%
%TA.AperFunction,SMDPad,CuDef*%
%ADD20R,1.500000X1.000000*%
%TD*%
%TA.AperFunction,SMDPad,CuDef*%
%ADD21RoundRect,0.150000X-0.587500X-0.150000X0.587500X-0.150000X0.587500X0.150000X-0.587500X0.150000X0*%
%TD*%
%TA.AperFunction,SMDPad,CuDef*%
%ADD22RoundRect,0.150000X0.150000X-0.587500X0.150000X0.587500X-0.150000X0.587500X-0.150000X-0.587500X0*%
%TD*%
%TA.AperFunction,ViaPad*%
%ADD23C,0.800000*%
%TD*%
%TA.AperFunction,Conductor*%
%ADD24C,0.500000*%
%TD*%
%TA.AperFunction,Conductor*%
%ADD25C,0.250000*%
%TD*%
G04 APERTURE END LIST*
D10*
%TO.P,J1,1,Pin_1*%
%TO.N,GND*%
X101854000Y-126238000D03*
%TO.P,J1,2,Pin_2*%
%TO.N,RX_KNX*%
X104394000Y-126238000D03*
%TO.P,J1,3,Pin_3*%
%TO.N,unconnected-(J1-Pad3)*%
X106934000Y-126238000D03*
%TO.P,J1,4,Pin_4*%
%TO.N,TX_KNX*%
X109474000Y-126238000D03*
%TO.P,J1,5,Pin_5*%
%TO.N,+5V*%
X112014000Y-126238000D03*
%TO.P,J1,6,Pin_6*%
%TO.N,unconnected-(J1-Pad6)*%
X112014000Y-123698000D03*
%TO.P,J1,7,Pin_7*%
%TO.N,unconnected-(J1-Pad7)*%
X109474000Y-123698000D03*
%TO.P,J1,8,Pin_8*%
%TO.N,unconnected-(J1-Pad8)*%
X106934000Y-123698000D03*
%TO.P,J1,9,Pin_9*%
%TO.N,unconnected-(J1-Pad9)*%
X104394000Y-123698000D03*
D11*
%TO.P,J1,10,Pin_10*%
%TO.N,unconnected-(J1-Pad10)*%
X101854000Y-123698000D03*
%TD*%
%TO.P,J3,1,Pin_1*%
%TO.N,+3V3*%
X116840000Y-87408000D03*
D10*
%TO.P,J3,2,Pin_2*%
%TO.N,GND*%
X114300000Y-87408000D03*
%TO.P,J3,3,Pin_3*%
%TO.N,SEN_SCL*%
X111760000Y-87408000D03*
%TO.P,J3,4,Pin_4*%
%TO.N,SEN_SDA*%
X109220000Y-87408000D03*
%TO.P,J3,5,Pin_5*%
%TO.N,GND*%
X106680000Y-87408000D03*
%TD*%
D11*
%TO.P,J2,1,Pin_1*%
%TO.N,CDS*%
X134874000Y-117094000D03*
D10*
%TO.P,J2,2,Pin_2*%
%TO.N,+5V*%
X132334000Y-117094000D03*
%TO.P,J2,3,Pin_3*%
%TO.N,RCWL_OUT*%
X129794000Y-117094000D03*
%TO.P,J2,4,Pin_4*%
%TO.N,GND*%
X127254000Y-117094000D03*
%TO.P,J2,5,Pin_5*%
%TO.N,unconnected-(J2-Pad5)*%
X124714000Y-117094000D03*
%TD*%
D12*
%TO.P,C1,1*%
%TO.N,+5V*%
X87630000Y-128323000D03*
%TO.P,C1,2*%
%TO.N,GND*%
X87630000Y-130048000D03*
%TD*%
D13*
%TO.P,R4,1*%
%TO.N,+5V*%
X101981000Y-120523000D03*
%TO.P,R4,2*%
%TO.N,TX_KNX*%
X101981000Y-118523000D03*
%TD*%
D14*
%TO.P,U1,1,~{RST}*%
%TO.N,unconnected-(U1-Pad1)*%
X72748000Y-87884000D03*
D15*
%TO.P,U1,2,A0*%
%TO.N,unconnected-(U1-Pad2)*%
X72748000Y-90424000D03*
%TO.P,U1,3,D0*%
%TO.N,unconnected-(U1-Pad3)*%
X72748000Y-92964000D03*
%TO.P,U1,4,SCK/D5*%
%TO.N,unconnected-(U1-Pad4)*%
X72748000Y-95504000D03*
%TO.P,U1,5,MISO/D6*%
%TO.N,unconnected-(U1-Pad5)*%
X72748000Y-98044000D03*
%TO.P,U1,6,MOSI/D7*%
%TO.N,unconnected-(U1-Pad6)*%
X72748000Y-100584000D03*
%TO.P,U1,7,CS/D8*%
%TO.N,unconnected-(U1-Pad7)*%
X72748000Y-103124000D03*
%TO.P,U1,8,3V3*%
%TO.N,+3V3*%
X72748000Y-105664000D03*
%TO.P,U1,9,5V*%
%TO.N,+5V*%
X95608000Y-105664000D03*
%TO.P,U1,10,GND*%
%TO.N,GND*%
X95608000Y-103124000D03*
%TO.P,U1,11,D4*%
%TO.N,RCWL_OUT*%
X95608000Y-100584000D03*
%TO.P,U1,12,D3*%
%TO.N,SEN_OW*%
X95608000Y-98044000D03*
%TO.P,U1,13,SDA/D2*%
%TO.N,SEN_SDA*%
X95608000Y-95504000D03*
%TO.P,U1,14,SCL/D1*%
%TO.N,SEN_SCL*%
X95608000Y-92964000D03*
%TO.P,U1,15,RX*%
%TO.N,TX_ESP*%
X95608000Y-90424000D03*
%TO.P,U1,16,TX*%
%TO.N,RX_ESP*%
X95608000Y-87884000D03*
%TD*%
D16*
%TO.P,Q1,1,G*%
%TO.N,+3V3*%
X102931000Y-114632500D03*
%TO.P,Q1,2,S*%
%TO.N,ESP_RX*%
X101031000Y-114632500D03*
%TO.P,Q1,3,D*%
%TO.N,TX_KNX*%
X101981000Y-116507500D03*
%TD*%
D17*
%TO.P,R7,1*%
%TO.N,+5V*%
X91440000Y-122555000D03*
%TO.P,R7,2*%
%TO.N,Net-(D1-Pad4)*%
X93515000Y-122555000D03*
%TD*%
D18*
%TO.P,R2,1*%
%TO.N,+3V3*%
X101092000Y-107950000D03*
%TO.P,R2,2*%
%TO.N,ESP_RX*%
X103092000Y-107950000D03*
%TD*%
%TO.P,R1,1*%
%TO.N,+3V3*%
X101235000Y-95504000D03*
%TO.P,R1,2*%
%TO.N,SEN_OW*%
X103235000Y-95504000D03*
%TD*%
D19*
%TO.P,R6,1*%
%TO.N,+3V3*%
X88646000Y-117475000D03*
%TO.P,R6,2*%
%TO.N,NEOP*%
X88646000Y-119550000D03*
%TD*%
D18*
%TO.P,R5,1*%
%TO.N,+5V*%
X101219000Y-97790000D03*
%TO.P,R5,2*%
%TO.N,RX_KNX*%
X103219000Y-97790000D03*
%TD*%
D20*
%TO.P,D1,1,VDD*%
%TO.N,+5V*%
X90006000Y-127432000D03*
%TO.P,D1,2,DOUT*%
%TO.N,unconnected-(D1-Pad2)*%
X90006000Y-130632000D03*
%TO.P,D1,3,VSS*%
%TO.N,GND*%
X94906000Y-130632000D03*
%TO.P,D1,4,DIN*%
%TO.N,Net-(D1-Pad4)*%
X94906000Y-127432000D03*
%TD*%
D11*
%TO.P,J4,1,Pin_1*%
%TO.N,+3V3*%
X107828000Y-95123000D03*
D10*
%TO.P,J4,2,Pin_2*%
%TO.N,SEN_OW*%
X110368000Y-95123000D03*
%TO.P,J4,3,Pin_3*%
%TO.N,SEN_SDA*%
X112908000Y-95123000D03*
%TO.P,J4,4,Pin_4*%
%TO.N,SEN_SCL*%
X115448000Y-95123000D03*
%TO.P,J4,5,Pin_5*%
%TO.N,GND*%
X117988000Y-95123000D03*
%TD*%
D18*
%TO.P,R3,1*%
%TO.N,+3V3*%
X101092000Y-104775000D03*
%TO.P,R3,2*%
%TO.N,ESP_TX*%
X103092000Y-104775000D03*
%TD*%
D21*
%TO.P,Q3,1,G*%
%TO.N,+3V3*%
X91391500Y-117414000D03*
%TO.P,Q3,2,S*%
%TO.N,NEOP*%
X91391500Y-119314000D03*
%TO.P,Q3,3,D*%
%TO.N,Net-(D1-Pad4)*%
X93266500Y-118364000D03*
%TD*%
D22*
%TO.P,Q2,1,G*%
%TO.N,+3V3*%
X101219000Y-102362000D03*
%TO.P,Q2,2,S*%
%TO.N,ESP_TX*%
X103119000Y-102362000D03*
%TO.P,Q2,3,D*%
%TO.N,RX_KNX*%
X102169000Y-100487000D03*
%TD*%
D23*
%TO.N,SEN_SCL*%
X111826000Y-91501000D03*
%TO.N,SEN_OW*%
X104521000Y-95504000D03*
%TO.N,+3V3*%
X100076000Y-113030000D03*
%TO.N,GND*%
X86106000Y-118999000D03*
%TO.N,+5V*%
X100965000Y-99441000D03*
X97917000Y-120650000D03*
X97917000Y-105664000D03*
X89027000Y-122555000D03*
%TO.N,RX_KNX*%
X104394000Y-113783000D03*
%TO.N,TX_KNX*%
X106807000Y-118491000D03*
%TO.N,+3V3*%
X93726000Y-117348000D03*
X102997000Y-113030000D03*
%TD*%
D24*
%TO.N,GND*%
X117988000Y-107828000D02*
X127254000Y-117094000D01*
X117988000Y-95123000D02*
X117988000Y-107828000D01*
%TO.N,SEN_SDA*%
X99677000Y-91435000D02*
X95608000Y-95504000D01*
X109220000Y-91435000D02*
X99677000Y-91435000D01*
%TO.N,SEN_SCL*%
X111826000Y-91501000D02*
X111760000Y-91435000D01*
%TO.N,GND*%
X112617000Y-85725000D02*
X114300000Y-87408000D01*
X108363000Y-85725000D02*
X112617000Y-85725000D01*
X106680000Y-87408000D02*
X108363000Y-85725000D01*
%TO.N,SEN_SDA*%
X109220000Y-91435000D02*
X109220000Y-87408000D01*
X112908000Y-95123000D02*
X109220000Y-91435000D01*
%TO.N,SEN_SCL*%
X111760000Y-91435000D02*
X111760000Y-87408000D01*
X115448000Y-95123000D02*
X111826000Y-91501000D01*
%TO.N,GND*%
X114300000Y-91435000D02*
X117988000Y-95123000D01*
X114300000Y-87408000D02*
X114300000Y-91435000D01*
%TO.N,SEN_OW*%
X103235000Y-95504000D02*
X104521000Y-95504000D01*
%TO.N,+3V3*%
X106558000Y-93853000D02*
X107828000Y-95123000D01*
X101854000Y-93853000D02*
X106558000Y-93853000D01*
X101235000Y-94472000D02*
X101854000Y-93853000D01*
X101235000Y-95504000D02*
X101235000Y-94472000D01*
%TO.N,TX_KNX*%
X106807000Y-118491000D02*
X102013000Y-118491000D01*
X102013000Y-118491000D02*
X101981000Y-118523000D01*
%TO.N,+5V*%
X126492000Y-122936000D02*
X132334000Y-117094000D01*
X112903000Y-120523000D02*
X115316000Y-122936000D01*
X115316000Y-122936000D02*
X126492000Y-122936000D01*
X101981000Y-120523000D02*
X112903000Y-120523000D01*
X113665000Y-126238000D02*
X112014000Y-126238000D01*
X115316000Y-124587000D02*
X113665000Y-126238000D01*
X115316000Y-123063000D02*
X115316000Y-124587000D01*
%TO.N,SEN_SDA*%
X95608000Y-95504000D02*
X95885000Y-95504000D01*
D25*
%TO.N,+3V3*%
X101092000Y-110490000D02*
X100076000Y-111506000D01*
X100076000Y-111506000D02*
X100076000Y-113030000D01*
X101092000Y-107950000D02*
X101092000Y-110490000D01*
D24*
%TO.N,+5V*%
X101854000Y-120650000D02*
X101981000Y-120523000D01*
X97917000Y-110744000D02*
X95608000Y-108435000D01*
X95608000Y-108435000D02*
X95608000Y-105664000D01*
X97917000Y-120650000D02*
X97917000Y-110744000D01*
X97917000Y-120650000D02*
X101854000Y-120650000D01*
%TO.N,GND*%
X89685978Y-132461000D02*
X93599000Y-132461000D01*
X87630000Y-130048000D02*
X87376000Y-130048000D01*
X86106000Y-128778000D02*
X86106000Y-118999000D01*
X87376000Y-130048000D02*
X86233000Y-128905000D01*
X86233000Y-128905000D02*
X86106000Y-128778000D01*
X93599000Y-132461000D02*
X94906000Y-131154000D01*
X94906000Y-130632000D02*
X97460000Y-130632000D01*
X87630000Y-130048000D02*
X87630000Y-130405022D01*
X97460000Y-130632000D02*
X101854000Y-126238000D01*
X87630000Y-130405022D02*
X89685978Y-132461000D01*
X94906000Y-131154000D02*
X94906000Y-130632000D01*
%TO.N,Net-(D1-Pad4)*%
X93266500Y-118364000D02*
X93266500Y-122306500D01*
X94906000Y-127432000D02*
X94906000Y-123946000D01*
X94906000Y-123946000D02*
X93515000Y-122555000D01*
X93266500Y-122306500D02*
X93515000Y-122555000D01*
%TO.N,+5V*%
X89115000Y-128323000D02*
X90006000Y-127432000D01*
X91440000Y-122555000D02*
X89027000Y-122555000D01*
X90006000Y-123989000D02*
X90006000Y-127432000D01*
X100965000Y-98044000D02*
X101219000Y-97790000D01*
X87630000Y-128323000D02*
X89115000Y-128323000D01*
X100965000Y-99441000D02*
X100965000Y-98044000D01*
X91440000Y-122555000D02*
X90006000Y-123989000D01*
X95608000Y-105664000D02*
X97917000Y-105664000D01*
%TO.N,RX_KNX*%
X104394000Y-113783000D02*
X104394000Y-101152000D01*
X104521000Y-99695000D02*
X103729000Y-100487000D01*
X104521000Y-98425000D02*
X104521000Y-99695000D01*
X104394000Y-101152000D02*
X103729000Y-100487000D01*
X103729000Y-100487000D02*
X102169000Y-100487000D01*
X103886000Y-97790000D02*
X104521000Y-98425000D01*
X103219000Y-97790000D02*
X103886000Y-97790000D01*
%TO.N,TX_KNX*%
X101981000Y-116507500D02*
X101981000Y-118523000D01*
%TO.N,+3V3*%
X72748000Y-114912000D02*
X75311000Y-117475000D01*
X100711000Y-102362000D02*
X101219000Y-102362000D01*
X101235000Y-95504000D02*
X100584000Y-95504000D01*
X101092000Y-104775000D02*
X101092000Y-107950000D01*
X101219000Y-102362000D02*
X101219000Y-104648000D01*
D25*
X91391500Y-117414000D02*
X93660000Y-117414000D01*
D24*
X100584000Y-95504000D02*
X99695000Y-96393000D01*
D25*
X93660000Y-117414000D02*
X93726000Y-117348000D01*
D24*
X99695000Y-96393000D02*
X99695000Y-101346000D01*
X72748000Y-105664000D02*
X72748000Y-114912000D01*
X101219000Y-104648000D02*
X101092000Y-104775000D01*
X102931000Y-113096000D02*
X102997000Y-113030000D01*
X102931000Y-114632500D02*
X102931000Y-113096000D01*
X99695000Y-101346000D02*
X100711000Y-102362000D01*
X75311000Y-117475000D02*
X88646000Y-117475000D01*
%TO.N,ESP_RX*%
X103092000Y-111157000D02*
X103092000Y-107950000D01*
X101031000Y-111948000D02*
X101473000Y-111506000D01*
X102743000Y-111506000D02*
X103092000Y-111157000D01*
X101031000Y-114632500D02*
X101031000Y-111948000D01*
X101473000Y-111506000D02*
X102743000Y-111506000D01*
%TO.N,ESP_TX*%
X103119000Y-104748000D02*
X103092000Y-104775000D01*
X103119000Y-102362000D02*
X103119000Y-104748000D01*
%TO.N,NEOP*%
X88646000Y-119550000D02*
X91155500Y-119550000D01*
X91155500Y-119550000D02*
X91391500Y-119314000D01*
%TD*%
M02*
