M48
; DRILL file {KiCad (6.0.0)} date Sat Apr 16 20:40:47 2022
; FORMAT={-:-/ absolute / metric / decimal}
; #@! TF.CreationDate,2022-04-16T20:40:47+02:00
; #@! TF.GenerationSoftware,Kicad,Pcbnew,(6.0.0)
; #@! TF.FileFunction,Plated,1,2,PTH
FMAT,2
METRIC
; #@! TA.AperFunction,Plated,PTH,ViaDrill
T1C0.400
; #@! TA.AperFunction,Plated,PTH,ComponentDrill
T2C1.000
%
G90
G05
T1
X86.106Y-118.999
X89.027Y-122.555
X93.726Y-117.348
X97.917Y-105.664
X97.917Y-120.65
X100.076Y-113.03
X100.965Y-99.441
X102.997Y-113.03
X104.394Y-113.783
X104.521Y-95.504
X106.807Y-118.491
X111.826Y-91.501
T2
X72.748Y-87.884
X72.748Y-90.424
X72.748Y-92.964
X72.748Y-95.504
X72.748Y-98.044
X72.748Y-100.584
X72.748Y-103.124
X72.748Y-105.664
X95.608Y-87.884
X95.608Y-90.424
X95.608Y-92.964
X95.608Y-95.504
X95.608Y-98.044
X95.608Y-100.584
X95.608Y-103.124
X95.608Y-105.664
X101.854Y-123.698
X101.854Y-126.238
X104.394Y-123.698
X104.394Y-126.238
X106.68Y-87.408
X106.934Y-123.698
X106.934Y-126.238
X107.828Y-95.123
X109.22Y-87.408
X109.474Y-123.698
X109.474Y-126.238
X110.368Y-95.123
X111.76Y-87.408
X112.014Y-123.698
X112.014Y-126.238
X112.908Y-95.123
X114.3Y-87.408
X115.448Y-95.123
X116.84Y-87.408
X117.988Y-95.123
X124.714Y-117.094
X127.254Y-117.094
X129.794Y-117.094
X132.334Y-117.094
X134.874Y-117.094
T0
M30
