%TF.GenerationSoftware,KiCad,Pcbnew,(6.0.0)*%
%TF.CreationDate,2022-04-16T20:40:41+02:00*%
%TF.ProjectId,bewegungsmelder,62657765-6775-46e6-9773-6d656c646572,rev?*%
%TF.SameCoordinates,Original*%
%TF.FileFunction,Legend,Top*%
%TF.FilePolarity,Positive*%
%FSLAX46Y46*%
G04 Gerber Fmt 4.6, Leading zero omitted, Abs format (unit mm)*
G04 Created by KiCad (PCBNEW (6.0.0)) date 2022-04-16 20:40:41*
%MOMM*%
%LPD*%
G01*
G04 APERTURE LIST*
%ADD10C,0.150000*%
%ADD11C,0.120000*%
G04 APERTURE END LIST*
D10*
X102251428Y-136977380D02*
X102251428Y-135977380D01*
X102251428Y-136453571D02*
X102822857Y-136453571D01*
X102822857Y-136977380D02*
X102822857Y-135977380D01*
X103251428Y-135739285D02*
X103346666Y-135691666D01*
X103489523Y-135691666D01*
X103584761Y-135739285D01*
X103632380Y-135834523D01*
X103632380Y-135929761D01*
X103584761Y-136025000D01*
X103251428Y-136358333D01*
X103632380Y-136358333D01*
X105013333Y-135977380D02*
X105108571Y-135977380D01*
X105203809Y-136025000D01*
X105251428Y-136072619D01*
X105299047Y-136167857D01*
X105346666Y-136358333D01*
X105346666Y-136596428D01*
X105299047Y-136786904D01*
X105251428Y-136882142D01*
X105203809Y-136929761D01*
X105108571Y-136977380D01*
X105013333Y-136977380D01*
X104918095Y-136929761D01*
X104870476Y-136882142D01*
X104822857Y-136786904D01*
X104775238Y-136596428D01*
X104775238Y-136358333D01*
X104822857Y-136167857D01*
X104870476Y-136072619D01*
X104918095Y-136025000D01*
X105013333Y-135977380D01*
X106203809Y-136310714D02*
X106203809Y-136977380D01*
X105965714Y-135929761D02*
X105727619Y-136644047D01*
X106346666Y-136644047D01*
X107441904Y-135929761D02*
X106584761Y-137215476D01*
X107727619Y-136072619D02*
X107775238Y-136025000D01*
X107870476Y-135977380D01*
X108108571Y-135977380D01*
X108203809Y-136025000D01*
X108251428Y-136072619D01*
X108299047Y-136167857D01*
X108299047Y-136263095D01*
X108251428Y-136405952D01*
X107680000Y-136977380D01*
X108299047Y-136977380D01*
X108918095Y-135977380D02*
X109013333Y-135977380D01*
X109108571Y-136025000D01*
X109156190Y-136072619D01*
X109203809Y-136167857D01*
X109251428Y-136358333D01*
X109251428Y-136596428D01*
X109203809Y-136786904D01*
X109156190Y-136882142D01*
X109108571Y-136929761D01*
X109013333Y-136977380D01*
X108918095Y-136977380D01*
X108822857Y-136929761D01*
X108775238Y-136882142D01*
X108727619Y-136786904D01*
X108680000Y-136596428D01*
X108680000Y-136358333D01*
X108727619Y-136167857D01*
X108775238Y-136072619D01*
X108822857Y-136025000D01*
X108918095Y-135977380D01*
X109632380Y-136072619D02*
X109680000Y-136025000D01*
X109775238Y-135977380D01*
X110013333Y-135977380D01*
X110108571Y-136025000D01*
X110156190Y-136072619D01*
X110203809Y-136167857D01*
X110203809Y-136263095D01*
X110156190Y-136405952D01*
X109584761Y-136977380D01*
X110203809Y-136977380D01*
X110584761Y-136072619D02*
X110632380Y-136025000D01*
X110727619Y-135977380D01*
X110965714Y-135977380D01*
X111060952Y-136025000D01*
X111108571Y-136072619D01*
X111156190Y-136167857D01*
X111156190Y-136263095D01*
X111108571Y-136405952D01*
X110537142Y-136977380D01*
X111156190Y-136977380D01*
%TO.C,J3*%
X113752380Y-77581333D02*
X114466666Y-77581333D01*
X114609523Y-77628952D01*
X114704761Y-77724190D01*
X114752380Y-77867047D01*
X114752380Y-77962285D01*
X113752380Y-77200380D02*
X113752380Y-76581333D01*
X114133333Y-76914666D01*
X114133333Y-76771809D01*
X114180952Y-76676571D01*
X114228571Y-76628952D01*
X114323809Y-76581333D01*
X114561904Y-76581333D01*
X114657142Y-76628952D01*
X114704761Y-76676571D01*
X114752380Y-76771809D01*
X114752380Y-77057523D01*
X114704761Y-77152761D01*
X114657142Y-77200380D01*
X108815238Y-82383714D02*
X108767619Y-82526571D01*
X108767619Y-82764666D01*
X108815238Y-82859904D01*
X108862857Y-82907523D01*
X108958095Y-82955142D01*
X109053333Y-82955142D01*
X109148571Y-82907523D01*
X109196190Y-82859904D01*
X109243809Y-82764666D01*
X109291428Y-82574190D01*
X109339047Y-82478952D01*
X109386666Y-82431333D01*
X109481904Y-82383714D01*
X109577142Y-82383714D01*
X109672380Y-82431333D01*
X109720000Y-82478952D01*
X109767619Y-82574190D01*
X109767619Y-82812285D01*
X109720000Y-82955142D01*
X108767619Y-83383714D02*
X109767619Y-83383714D01*
X109767619Y-83621809D01*
X109720000Y-83764666D01*
X109624761Y-83859904D01*
X109529523Y-83907523D01*
X109339047Y-83955142D01*
X109196190Y-83955142D01*
X109005714Y-83907523D01*
X108910476Y-83859904D01*
X108815238Y-83764666D01*
X108767619Y-83621809D01*
X108767619Y-83383714D01*
X109053333Y-84336095D02*
X109053333Y-84812285D01*
X108767619Y-84240857D02*
X109767619Y-84574190D01*
X108767619Y-84907523D01*
X111355238Y-82407523D02*
X111307619Y-82550380D01*
X111307619Y-82788476D01*
X111355238Y-82883714D01*
X111402857Y-82931333D01*
X111498095Y-82978952D01*
X111593333Y-82978952D01*
X111688571Y-82931333D01*
X111736190Y-82883714D01*
X111783809Y-82788476D01*
X111831428Y-82598000D01*
X111879047Y-82502761D01*
X111926666Y-82455142D01*
X112021904Y-82407523D01*
X112117142Y-82407523D01*
X112212380Y-82455142D01*
X112260000Y-82502761D01*
X112307619Y-82598000D01*
X112307619Y-82836095D01*
X112260000Y-82978952D01*
X111402857Y-83978952D02*
X111355238Y-83931333D01*
X111307619Y-83788476D01*
X111307619Y-83693238D01*
X111355238Y-83550380D01*
X111450476Y-83455142D01*
X111545714Y-83407523D01*
X111736190Y-83359904D01*
X111879047Y-83359904D01*
X112069523Y-83407523D01*
X112164761Y-83455142D01*
X112260000Y-83550380D01*
X112307619Y-83693238D01*
X112307619Y-83788476D01*
X112260000Y-83931333D01*
X112212380Y-83978952D01*
X111307619Y-84883714D02*
X111307619Y-84407523D01*
X112307619Y-84407523D01*
X106513333Y-81859904D02*
X106513333Y-82336095D01*
X106227619Y-81764666D02*
X107227619Y-82098000D01*
X106227619Y-82431333D01*
X106227619Y-82764666D02*
X107227619Y-82764666D01*
X107227619Y-83002761D01*
X107180000Y-83145619D01*
X107084761Y-83240857D01*
X106989523Y-83288476D01*
X106799047Y-83336095D01*
X106656190Y-83336095D01*
X106465714Y-83288476D01*
X106370476Y-83240857D01*
X106275238Y-83145619D01*
X106227619Y-83002761D01*
X106227619Y-82764666D01*
X106227619Y-83764666D02*
X107227619Y-83764666D01*
X107227619Y-84002761D01*
X107180000Y-84145619D01*
X107084761Y-84240857D01*
X106989523Y-84288476D01*
X106799047Y-84336095D01*
X106656190Y-84336095D01*
X106465714Y-84288476D01*
X106370476Y-84240857D01*
X106275238Y-84145619D01*
X106227619Y-84002761D01*
X106227619Y-83764666D01*
X106227619Y-85336095D02*
X106703809Y-85002761D01*
X106227619Y-84764666D02*
X107227619Y-84764666D01*
X107227619Y-85145619D01*
X107180000Y-85240857D01*
X107132380Y-85288476D01*
X107037142Y-85336095D01*
X106894285Y-85336095D01*
X106799047Y-85288476D01*
X106751428Y-85240857D01*
X106703809Y-85145619D01*
X106703809Y-84764666D01*
X114800000Y-82836095D02*
X114847619Y-82740857D01*
X114847619Y-82598000D01*
X114800000Y-82455142D01*
X114704761Y-82359904D01*
X114609523Y-82312285D01*
X114419047Y-82264666D01*
X114276190Y-82264666D01*
X114085714Y-82312285D01*
X113990476Y-82359904D01*
X113895238Y-82455142D01*
X113847619Y-82598000D01*
X113847619Y-82693238D01*
X113895238Y-82836095D01*
X113942857Y-82883714D01*
X114276190Y-82883714D01*
X114276190Y-82693238D01*
X113847619Y-83312285D02*
X114847619Y-83312285D01*
X113847619Y-83883714D01*
X114847619Y-83883714D01*
X113847619Y-84359904D02*
X114847619Y-84359904D01*
X114847619Y-84598000D01*
X114800000Y-84740857D01*
X114704761Y-84836095D01*
X114609523Y-84883714D01*
X114419047Y-84931333D01*
X114276190Y-84931333D01*
X114085714Y-84883714D01*
X113990476Y-84836095D01*
X113895238Y-84740857D01*
X113847619Y-84598000D01*
X113847619Y-84359904D01*
X117387619Y-82264666D02*
X116387619Y-82598000D01*
X117387619Y-82931333D01*
X116482857Y-83836095D02*
X116435238Y-83788476D01*
X116387619Y-83645619D01*
X116387619Y-83550380D01*
X116435238Y-83407523D01*
X116530476Y-83312285D01*
X116625714Y-83264666D01*
X116816190Y-83217047D01*
X116959047Y-83217047D01*
X117149523Y-83264666D01*
X117244761Y-83312285D01*
X117340000Y-83407523D01*
X117387619Y-83550380D01*
X117387619Y-83645619D01*
X117340000Y-83788476D01*
X117292380Y-83836095D01*
X116482857Y-84836095D02*
X116435238Y-84788476D01*
X116387619Y-84645619D01*
X116387619Y-84550380D01*
X116435238Y-84407523D01*
X116530476Y-84312285D01*
X116625714Y-84264666D01*
X116816190Y-84217047D01*
X116959047Y-84217047D01*
X117149523Y-84264666D01*
X117244761Y-84312285D01*
X117340000Y-84407523D01*
X117387619Y-84550380D01*
X117387619Y-84645619D01*
X117340000Y-84788476D01*
X117292380Y-84836095D01*
%TO.C,J2*%
X130516380Y-94567333D02*
X131230666Y-94567333D01*
X131373523Y-94614952D01*
X131468761Y-94710190D01*
X131516380Y-94853047D01*
X131516380Y-94948285D01*
X130611619Y-94138761D02*
X130564000Y-94091142D01*
X130516380Y-93995904D01*
X130516380Y-93757809D01*
X130564000Y-93662571D01*
X130611619Y-93614952D01*
X130706857Y-93567333D01*
X130802095Y-93567333D01*
X130944952Y-93614952D01*
X131516380Y-94186380D01*
X131516380Y-93567333D01*
X132881619Y-112188761D02*
X131881619Y-112522095D01*
X132881619Y-112855428D01*
X131881619Y-113188761D02*
X132881619Y-113188761D01*
X131881619Y-113664952D02*
X132881619Y-113664952D01*
X131881619Y-114236380D01*
X132881619Y-114236380D01*
X127754000Y-112522095D02*
X127801619Y-112426857D01*
X127801619Y-112284000D01*
X127754000Y-112141142D01*
X127658761Y-112045904D01*
X127563523Y-111998285D01*
X127373047Y-111950666D01*
X127230190Y-111950666D01*
X127039714Y-111998285D01*
X126944476Y-112045904D01*
X126849238Y-112141142D01*
X126801619Y-112284000D01*
X126801619Y-112379238D01*
X126849238Y-112522095D01*
X126896857Y-112569714D01*
X127230190Y-112569714D01*
X127230190Y-112379238D01*
X126801619Y-112998285D02*
X127801619Y-112998285D01*
X126801619Y-113569714D01*
X127801619Y-113569714D01*
X126801619Y-114045904D02*
X127801619Y-114045904D01*
X127801619Y-114284000D01*
X127754000Y-114426857D01*
X127658761Y-114522095D01*
X127563523Y-114569714D01*
X127373047Y-114617333D01*
X127230190Y-114617333D01*
X127039714Y-114569714D01*
X126944476Y-114522095D01*
X126849238Y-114426857D01*
X126801619Y-114284000D01*
X126801619Y-114045904D01*
X125261619Y-112045904D02*
X125261619Y-112664952D01*
X124880666Y-112331619D01*
X124880666Y-112474476D01*
X124833047Y-112569714D01*
X124785428Y-112617333D01*
X124690190Y-112664952D01*
X124452095Y-112664952D01*
X124356857Y-112617333D01*
X124309238Y-112569714D01*
X124261619Y-112474476D01*
X124261619Y-112188761D01*
X124309238Y-112093523D01*
X124356857Y-112045904D01*
X125261619Y-112950666D02*
X124261619Y-113284000D01*
X125261619Y-113617333D01*
X125261619Y-113855428D02*
X125261619Y-114474476D01*
X124880666Y-114141142D01*
X124880666Y-114284000D01*
X124833047Y-114379238D01*
X124785428Y-114426857D01*
X124690190Y-114474476D01*
X124452095Y-114474476D01*
X124356857Y-114426857D01*
X124309238Y-114379238D01*
X124261619Y-114284000D01*
X124261619Y-113998285D01*
X124309238Y-113903047D01*
X124356857Y-113855428D01*
X130341619Y-112284000D02*
X130341619Y-112474476D01*
X130294000Y-112569714D01*
X130198761Y-112664952D01*
X130008285Y-112712571D01*
X129674952Y-112712571D01*
X129484476Y-112664952D01*
X129389238Y-112569714D01*
X129341619Y-112474476D01*
X129341619Y-112284000D01*
X129389238Y-112188761D01*
X129484476Y-112093523D01*
X129674952Y-112045904D01*
X130008285Y-112045904D01*
X130198761Y-112093523D01*
X130294000Y-112188761D01*
X130341619Y-112284000D01*
X130341619Y-113141142D02*
X129532095Y-113141142D01*
X129436857Y-113188761D01*
X129389238Y-113236380D01*
X129341619Y-113331619D01*
X129341619Y-113522095D01*
X129389238Y-113617333D01*
X129436857Y-113664952D01*
X129532095Y-113712571D01*
X130341619Y-113712571D01*
X130341619Y-114045904D02*
X130341619Y-114617333D01*
X129341619Y-114331619D02*
X130341619Y-114331619D01*
X134516857Y-112617333D02*
X134469238Y-112569714D01*
X134421619Y-112426857D01*
X134421619Y-112331619D01*
X134469238Y-112188761D01*
X134564476Y-112093523D01*
X134659714Y-112045904D01*
X134850190Y-111998285D01*
X134993047Y-111998285D01*
X135183523Y-112045904D01*
X135278761Y-112093523D01*
X135374000Y-112188761D01*
X135421619Y-112331619D01*
X135421619Y-112426857D01*
X135374000Y-112569714D01*
X135326380Y-112617333D01*
X134421619Y-113045904D02*
X135421619Y-113045904D01*
X135421619Y-113284000D01*
X135374000Y-113426857D01*
X135278761Y-113522095D01*
X135183523Y-113569714D01*
X134993047Y-113617333D01*
X134850190Y-113617333D01*
X134659714Y-113569714D01*
X134564476Y-113522095D01*
X134469238Y-113426857D01*
X134421619Y-113284000D01*
X134421619Y-113045904D01*
X134469238Y-113998285D02*
X134421619Y-114141142D01*
X134421619Y-114379238D01*
X134469238Y-114474476D01*
X134516857Y-114522095D01*
X134612095Y-114569714D01*
X134707333Y-114569714D01*
X134802571Y-114522095D01*
X134850190Y-114474476D01*
X134897809Y-114379238D01*
X134945428Y-114188761D01*
X134993047Y-114093523D01*
X135040666Y-114045904D01*
X135135904Y-113998285D01*
X135231142Y-113998285D01*
X135326380Y-114045904D01*
X135374000Y-114093523D01*
X135421619Y-114188761D01*
X135421619Y-114426857D01*
X135374000Y-114569714D01*
%TO.C,C1*%
X89417142Y-129352166D02*
X89464761Y-129399785D01*
X89512380Y-129542642D01*
X89512380Y-129637880D01*
X89464761Y-129780738D01*
X89369523Y-129875976D01*
X89274285Y-129923595D01*
X89083809Y-129971214D01*
X88940952Y-129971214D01*
X88750476Y-129923595D01*
X88655238Y-129875976D01*
X88560000Y-129780738D01*
X88512380Y-129637880D01*
X88512380Y-129542642D01*
X88560000Y-129399785D01*
X88607619Y-129352166D01*
X89512380Y-128399785D02*
X89512380Y-128971214D01*
X89512380Y-128685500D02*
X88512380Y-128685500D01*
X88655238Y-128780738D01*
X88750476Y-128875976D01*
X88798095Y-128971214D01*
%TO.C,R4*%
X99782333Y-119959380D02*
X99449000Y-119483190D01*
X99210904Y-119959380D02*
X99210904Y-118959380D01*
X99591857Y-118959380D01*
X99687095Y-119007000D01*
X99734714Y-119054619D01*
X99782333Y-119149857D01*
X99782333Y-119292714D01*
X99734714Y-119387952D01*
X99687095Y-119435571D01*
X99591857Y-119483190D01*
X99210904Y-119483190D01*
X100639476Y-119292714D02*
X100639476Y-119959380D01*
X100401380Y-118911761D02*
X100163285Y-119626047D01*
X100782333Y-119626047D01*
%TO.C,U1*%
X93986095Y-114336380D02*
X93986095Y-115145904D01*
X94033714Y-115241142D01*
X94081333Y-115288761D01*
X94176571Y-115336380D01*
X94367047Y-115336380D01*
X94462285Y-115288761D01*
X94509904Y-115241142D01*
X94557523Y-115145904D01*
X94557523Y-114336380D01*
X95557523Y-115336380D02*
X94986095Y-115336380D01*
X95271809Y-115336380D02*
X95271809Y-114336380D01*
X95176571Y-114479238D01*
X95081333Y-114574476D01*
X94986095Y-114622095D01*
%TO.C,Q1*%
X99218761Y-116117619D02*
X99123523Y-116070000D01*
X99028285Y-115974761D01*
X98885428Y-115831904D01*
X98790190Y-115784285D01*
X98694952Y-115784285D01*
X98742571Y-116022380D02*
X98647333Y-115974761D01*
X98552095Y-115879523D01*
X98504476Y-115689047D01*
X98504476Y-115355714D01*
X98552095Y-115165238D01*
X98647333Y-115070000D01*
X98742571Y-115022380D01*
X98933047Y-115022380D01*
X99028285Y-115070000D01*
X99123523Y-115165238D01*
X99171142Y-115355714D01*
X99171142Y-115689047D01*
X99123523Y-115879523D01*
X99028285Y-115974761D01*
X98933047Y-116022380D01*
X98742571Y-116022380D01*
X100123523Y-116022380D02*
X99552095Y-116022380D01*
X99837809Y-116022380D02*
X99837809Y-115022380D01*
X99742571Y-115165238D01*
X99647333Y-115260476D01*
X99552095Y-115308095D01*
%TO.C,R7*%
X92310833Y-121327380D02*
X91977500Y-120851190D01*
X91739404Y-121327380D02*
X91739404Y-120327380D01*
X92120357Y-120327380D01*
X92215595Y-120375000D01*
X92263214Y-120422619D01*
X92310833Y-120517857D01*
X92310833Y-120660714D01*
X92263214Y-120755952D01*
X92215595Y-120803571D01*
X92120357Y-120851190D01*
X91739404Y-120851190D01*
X92644166Y-120327380D02*
X93310833Y-120327380D01*
X92882261Y-121327380D01*
%TO.C,R2*%
X99020333Y-108402380D02*
X98687000Y-107926190D01*
X98448904Y-108402380D02*
X98448904Y-107402380D01*
X98829857Y-107402380D01*
X98925095Y-107450000D01*
X98972714Y-107497619D01*
X99020333Y-107592857D01*
X99020333Y-107735714D01*
X98972714Y-107830952D01*
X98925095Y-107878571D01*
X98829857Y-107926190D01*
X98448904Y-107926190D01*
X99401285Y-107497619D02*
X99448904Y-107450000D01*
X99544142Y-107402380D01*
X99782238Y-107402380D01*
X99877476Y-107450000D01*
X99925095Y-107497619D01*
X99972714Y-107592857D01*
X99972714Y-107688095D01*
X99925095Y-107830952D01*
X99353666Y-108402380D01*
X99972714Y-108402380D01*
%TO.C,R1*%
X99147333Y-95956380D02*
X98814000Y-95480190D01*
X98575904Y-95956380D02*
X98575904Y-94956380D01*
X98956857Y-94956380D01*
X99052095Y-95004000D01*
X99099714Y-95051619D01*
X99147333Y-95146857D01*
X99147333Y-95289714D01*
X99099714Y-95384952D01*
X99052095Y-95432571D01*
X98956857Y-95480190D01*
X98575904Y-95480190D01*
X100099714Y-95956380D02*
X99528285Y-95956380D01*
X99814000Y-95956380D02*
X99814000Y-94956380D01*
X99718761Y-95099238D01*
X99623523Y-95194476D01*
X99528285Y-95242095D01*
%TO.C,R6*%
X86320333Y-118689380D02*
X85987000Y-118213190D01*
X85748904Y-118689380D02*
X85748904Y-117689380D01*
X86129857Y-117689380D01*
X86225095Y-117737000D01*
X86272714Y-117784619D01*
X86320333Y-117879857D01*
X86320333Y-118022714D01*
X86272714Y-118117952D01*
X86225095Y-118165571D01*
X86129857Y-118213190D01*
X85748904Y-118213190D01*
X87177476Y-117689380D02*
X86987000Y-117689380D01*
X86891761Y-117737000D01*
X86844142Y-117784619D01*
X86748904Y-117927476D01*
X86701285Y-118117952D01*
X86701285Y-118498904D01*
X86748904Y-118594142D01*
X86796523Y-118641761D01*
X86891761Y-118689380D01*
X87082238Y-118689380D01*
X87177476Y-118641761D01*
X87225095Y-118594142D01*
X87272714Y-118498904D01*
X87272714Y-118260809D01*
X87225095Y-118165571D01*
X87177476Y-118117952D01*
X87082238Y-118070333D01*
X86891761Y-118070333D01*
X86796523Y-118117952D01*
X86748904Y-118165571D01*
X86701285Y-118260809D01*
%TO.C,R5*%
X99147333Y-98242380D02*
X98814000Y-97766190D01*
X98575904Y-98242380D02*
X98575904Y-97242380D01*
X98956857Y-97242380D01*
X99052095Y-97290000D01*
X99099714Y-97337619D01*
X99147333Y-97432857D01*
X99147333Y-97575714D01*
X99099714Y-97670952D01*
X99052095Y-97718571D01*
X98956857Y-97766190D01*
X98575904Y-97766190D01*
X100052095Y-97242380D02*
X99575904Y-97242380D01*
X99528285Y-97718571D01*
X99575904Y-97670952D01*
X99671142Y-97623333D01*
X99909238Y-97623333D01*
X100004476Y-97670952D01*
X100052095Y-97718571D01*
X100099714Y-97813809D01*
X100099714Y-98051904D01*
X100052095Y-98147142D01*
X100004476Y-98194761D01*
X99909238Y-98242380D01*
X99671142Y-98242380D01*
X99575904Y-98194761D01*
X99528285Y-98147142D01*
%TO.C,D1*%
X91717904Y-125984380D02*
X91717904Y-124984380D01*
X91956000Y-124984380D01*
X92098857Y-125032000D01*
X92194095Y-125127238D01*
X92241714Y-125222476D01*
X92289333Y-125412952D01*
X92289333Y-125555809D01*
X92241714Y-125746285D01*
X92194095Y-125841523D01*
X92098857Y-125936761D01*
X91956000Y-125984380D01*
X91717904Y-125984380D01*
X93241714Y-125984380D02*
X92670285Y-125984380D01*
X92956000Y-125984380D02*
X92956000Y-124984380D01*
X92860761Y-125127238D01*
X92765523Y-125222476D01*
X92670285Y-125270095D01*
X88550714Y-126944380D02*
X87979285Y-126944380D01*
X88265000Y-126944380D02*
X88265000Y-125944380D01*
X88169761Y-126087238D01*
X88074523Y-126182476D01*
X87979285Y-126230095D01*
%TO.C,J4*%
X107367666Y-96861380D02*
X107367666Y-97575666D01*
X107320047Y-97718523D01*
X107224809Y-97813761D01*
X107081952Y-97861380D01*
X106986714Y-97861380D01*
X108272428Y-97194714D02*
X108272428Y-97861380D01*
X108034333Y-96813761D02*
X107796238Y-97528047D01*
X108415285Y-97528047D01*
%TO.C,R3*%
X99020333Y-105227380D02*
X98687000Y-104751190D01*
X98448904Y-105227380D02*
X98448904Y-104227380D01*
X98829857Y-104227380D01*
X98925095Y-104275000D01*
X98972714Y-104322619D01*
X99020333Y-104417857D01*
X99020333Y-104560714D01*
X98972714Y-104655952D01*
X98925095Y-104703571D01*
X98829857Y-104751190D01*
X98448904Y-104751190D01*
X99353666Y-104227380D02*
X99972714Y-104227380D01*
X99639380Y-104608333D01*
X99782238Y-104608333D01*
X99877476Y-104655952D01*
X99925095Y-104703571D01*
X99972714Y-104798809D01*
X99972714Y-105036904D01*
X99925095Y-105132142D01*
X99877476Y-105179761D01*
X99782238Y-105227380D01*
X99496523Y-105227380D01*
X99401285Y-105179761D01*
X99353666Y-105132142D01*
%TO.C,Q3*%
X92233761Y-116511619D02*
X92138523Y-116464000D01*
X92043285Y-116368761D01*
X91900428Y-116225904D01*
X91805190Y-116178285D01*
X91709952Y-116178285D01*
X91757571Y-116416380D02*
X91662333Y-116368761D01*
X91567095Y-116273523D01*
X91519476Y-116083047D01*
X91519476Y-115749714D01*
X91567095Y-115559238D01*
X91662333Y-115464000D01*
X91757571Y-115416380D01*
X91948047Y-115416380D01*
X92043285Y-115464000D01*
X92138523Y-115559238D01*
X92186142Y-115749714D01*
X92186142Y-116083047D01*
X92138523Y-116273523D01*
X92043285Y-116368761D01*
X91948047Y-116416380D01*
X91757571Y-116416380D01*
X92519476Y-115416380D02*
X93138523Y-115416380D01*
X92805190Y-115797333D01*
X92948047Y-115797333D01*
X93043285Y-115844952D01*
X93090904Y-115892571D01*
X93138523Y-115987809D01*
X93138523Y-116225904D01*
X93090904Y-116321142D01*
X93043285Y-116368761D01*
X92948047Y-116416380D01*
X92662333Y-116416380D01*
X92567095Y-116368761D01*
X92519476Y-116321142D01*
%TO.C,Q2*%
X99218761Y-102020619D02*
X99123523Y-101973000D01*
X99028285Y-101877761D01*
X98885428Y-101734904D01*
X98790190Y-101687285D01*
X98694952Y-101687285D01*
X98742571Y-101925380D02*
X98647333Y-101877761D01*
X98552095Y-101782523D01*
X98504476Y-101592047D01*
X98504476Y-101258714D01*
X98552095Y-101068238D01*
X98647333Y-100973000D01*
X98742571Y-100925380D01*
X98933047Y-100925380D01*
X99028285Y-100973000D01*
X99123523Y-101068238D01*
X99171142Y-101258714D01*
X99171142Y-101592047D01*
X99123523Y-101782523D01*
X99028285Y-101877761D01*
X98933047Y-101925380D01*
X98742571Y-101925380D01*
X99552095Y-101020619D02*
X99599714Y-100973000D01*
X99694952Y-100925380D01*
X99933047Y-100925380D01*
X100028285Y-100973000D01*
X100075904Y-101020619D01*
X100123523Y-101115857D01*
X100123523Y-101211095D01*
X100075904Y-101353952D01*
X99504476Y-101925380D01*
X100123523Y-101925380D01*
D11*
%TO.C,J3*%
X105350000Y-86078000D02*
X105350000Y-88738000D01*
X115570000Y-86078000D02*
X115570000Y-88738000D01*
X118170000Y-86078000D02*
X118170000Y-87408000D01*
X115570000Y-88738000D02*
X105350000Y-88738000D01*
X115570000Y-86078000D02*
X105350000Y-86078000D01*
X116840000Y-86078000D02*
X118170000Y-86078000D01*
X119380000Y-69628000D02*
X104140000Y-69628000D01*
X104140000Y-69628000D02*
X104140000Y-89948000D01*
X104140000Y-89948000D02*
X119380000Y-89948000D01*
X119380000Y-89948000D02*
X119380000Y-69628000D01*
%TO.C,J2*%
X123384000Y-115764000D02*
X123384000Y-118424000D01*
X133604000Y-115764000D02*
X133604000Y-118424000D01*
X136204000Y-115764000D02*
X136204000Y-117094000D01*
X133604000Y-118424000D02*
X123384000Y-118424000D01*
X133604000Y-115764000D02*
X123384000Y-115764000D01*
X134874000Y-115764000D02*
X136204000Y-115764000D01*
X138684000Y-81534000D02*
X120904000Y-81534000D01*
X120904000Y-81534000D02*
X120904000Y-119634000D01*
X120904000Y-119634000D02*
X138684000Y-119634000D01*
X138684000Y-119634000D02*
X138684000Y-81534000D01*
%TO.C,C1*%
X87120000Y-129039233D02*
X87120000Y-129331767D01*
X88140000Y-129039233D02*
X88140000Y-129331767D01*
%TO.C,R4*%
X101246000Y-119750064D02*
X101246000Y-119295936D01*
X102716000Y-119750064D02*
X102716000Y-119295936D01*
%TO.C,U1*%
X71248000Y-107104000D02*
X71248000Y-81674000D01*
X73788000Y-114004000D02*
X97108000Y-114004000D01*
X94988000Y-79544000D02*
X73378000Y-79544000D01*
X71248000Y-107104000D02*
X73788000Y-107104000D01*
X97108000Y-114004000D02*
X97108000Y-81674000D01*
X73788000Y-107104000D02*
X73788000Y-114004000D01*
X97108000Y-81674000D02*
G75*
G03*
X94978000Y-79544000I-2130002J-2D01*
G01*
X73378000Y-79544000D02*
G75*
G03*
X71248000Y-81674000I2J-2130002D01*
G01*
D10*
X70208000Y-87249000D02*
X70208000Y-88519000D01*
X70208000Y-88519000D02*
X70843000Y-87884000D01*
X70843000Y-87884000D02*
X70208000Y-87249000D01*
G36*
X70843000Y-87884000D02*
G01*
X70208000Y-88519000D01*
X70208000Y-87249000D01*
X70843000Y-87884000D01*
G37*
X70843000Y-87884000D02*
X70208000Y-88519000D01*
X70208000Y-87249000D01*
X70843000Y-87884000D01*
D11*
%TO.C,Q1*%
X100421000Y-115570000D02*
X100421000Y-116220000D01*
X103541000Y-115570000D02*
X103541000Y-116220000D01*
X103541000Y-115570000D02*
X103541000Y-113895000D01*
X100421000Y-115570000D02*
X100421000Y-114920000D01*
%TO.C,R7*%
X92216248Y-121820000D02*
X92738752Y-121820000D01*
X92216248Y-123290000D02*
X92738752Y-123290000D01*
%TO.C,R2*%
X101864936Y-107215000D02*
X102319064Y-107215000D01*
X101864936Y-108685000D02*
X102319064Y-108685000D01*
%TO.C,R1*%
X102007936Y-96239000D02*
X102462064Y-96239000D01*
X102007936Y-94769000D02*
X102462064Y-94769000D01*
%TO.C,R6*%
X89381000Y-118251248D02*
X89381000Y-118773752D01*
X87911000Y-118251248D02*
X87911000Y-118773752D01*
%TO.C,R5*%
X101991936Y-97055000D02*
X102446064Y-97055000D01*
X101991936Y-98525000D02*
X102446064Y-98525000D01*
%TO.C,D1*%
X88806000Y-131782000D02*
X96106000Y-131782000D01*
X88806000Y-126282000D02*
X96106000Y-126282000D01*
X96106000Y-131782000D02*
X96106000Y-130632000D01*
%TO.C,J4*%
X109098000Y-96453000D02*
X119318000Y-96453000D01*
X109098000Y-96453000D02*
X109098000Y-93793000D01*
X119318000Y-96453000D02*
X119318000Y-93793000D01*
X109098000Y-93793000D02*
X119318000Y-93793000D01*
X106498000Y-96453000D02*
X106498000Y-95123000D01*
X107828000Y-96453000D02*
X106498000Y-96453000D01*
%TO.C,R3*%
X101864936Y-104040000D02*
X102319064Y-104040000D01*
X101864936Y-105510000D02*
X102319064Y-105510000D01*
%TO.C,Q3*%
X92329000Y-116804000D02*
X92979000Y-116804000D01*
X92329000Y-119924000D02*
X91679000Y-119924000D01*
X92329000Y-119924000D02*
X92979000Y-119924000D01*
X92329000Y-116804000D02*
X90654000Y-116804000D01*
%TO.C,Q2*%
X100609000Y-101424500D02*
X100609000Y-103099500D01*
X103729000Y-101424500D02*
X103729000Y-100774500D01*
X103729000Y-101424500D02*
X103729000Y-102074500D01*
X100609000Y-101424500D02*
X100609000Y-100774500D01*
%TD*%
M02*
