%TF.GenerationSoftware,KiCad,Pcbnew,(6.0.0)*%
%TF.CreationDate,2022-04-16T20:40:41+02:00*%
%TF.ProjectId,bewegungsmelder,62657765-6775-46e6-9773-6d656c646572,rev?*%
%TF.SameCoordinates,Original*%
%TF.FileFunction,Copper,L2,Bot*%
%TF.FilePolarity,Positive*%
%FSLAX46Y46*%
G04 Gerber Fmt 4.6, Leading zero omitted, Abs format (unit mm)*
G04 Created by KiCad (PCBNEW (6.0.0)) date 2022-04-16 20:40:41*
%MOMM*%
%LPD*%
G01*
G04 APERTURE LIST*
%ADD10C,0.300000*%
%TA.AperFunction,NonConductor*%
%ADD11C,0.300000*%
%TD*%
%TA.AperFunction,ComponentPad*%
%ADD12O,1.700000X1.700000*%
%TD*%
%TA.AperFunction,ComponentPad*%
%ADD13R,1.700000X1.700000*%
%TD*%
%TA.AperFunction,ComponentPad*%
%ADD14R,2.000000X2.000000*%
%TD*%
%TA.AperFunction,ComponentPad*%
%ADD15O,2.000000X1.600000*%
%TD*%
%TA.AperFunction,ViaPad*%
%ADD16C,0.800000*%
%TD*%
%TA.AperFunction,Conductor*%
%ADD17C,0.500000*%
%TD*%
G04 APERTURE END LIST*
D10*
D11*
X99910142Y-135846428D02*
X99910142Y-137346428D01*
X99910142Y-136632142D02*
X100767285Y-136632142D01*
X100767285Y-135846428D02*
X100767285Y-137346428D01*
X101410142Y-137703571D02*
X101553000Y-137775000D01*
X101767285Y-137775000D01*
X101910142Y-137703571D01*
X101981571Y-137560714D01*
X101981571Y-137417857D01*
X101910142Y-137275000D01*
X101410142Y-136775000D01*
X101981571Y-136775000D01*
X104053000Y-137346428D02*
X104195857Y-137346428D01*
X104338714Y-137275000D01*
X104410142Y-137203571D01*
X104481571Y-137060714D01*
X104553000Y-136775000D01*
X104553000Y-136417857D01*
X104481571Y-136132142D01*
X104410142Y-135989285D01*
X104338714Y-135917857D01*
X104195857Y-135846428D01*
X104053000Y-135846428D01*
X103910142Y-135917857D01*
X103838714Y-135989285D01*
X103767285Y-136132142D01*
X103695857Y-136417857D01*
X103695857Y-136775000D01*
X103767285Y-137060714D01*
X103838714Y-137203571D01*
X103910142Y-137275000D01*
X104053000Y-137346428D01*
X105838714Y-136846428D02*
X105838714Y-135846428D01*
X105481571Y-137417857D02*
X105124428Y-136346428D01*
X106053000Y-136346428D01*
X107695857Y-137417857D02*
X106410142Y-135489285D01*
X108124428Y-137203571D02*
X108195857Y-137275000D01*
X108338714Y-137346428D01*
X108695857Y-137346428D01*
X108838714Y-137275000D01*
X108910142Y-137203571D01*
X108981571Y-137060714D01*
X108981571Y-136917857D01*
X108910142Y-136703571D01*
X108053000Y-135846428D01*
X108981571Y-135846428D01*
X109910142Y-137346428D02*
X110053000Y-137346428D01*
X110195857Y-137275000D01*
X110267285Y-137203571D01*
X110338714Y-137060714D01*
X110410142Y-136775000D01*
X110410142Y-136417857D01*
X110338714Y-136132142D01*
X110267285Y-135989285D01*
X110195857Y-135917857D01*
X110053000Y-135846428D01*
X109910142Y-135846428D01*
X109767285Y-135917857D01*
X109695857Y-135989285D01*
X109624428Y-136132142D01*
X109553000Y-136417857D01*
X109553000Y-136775000D01*
X109624428Y-137060714D01*
X109695857Y-137203571D01*
X109767285Y-137275000D01*
X109910142Y-137346428D01*
X110981571Y-137203571D02*
X111053000Y-137275000D01*
X111195857Y-137346428D01*
X111553000Y-137346428D01*
X111695857Y-137275000D01*
X111767285Y-137203571D01*
X111838714Y-137060714D01*
X111838714Y-136917857D01*
X111767285Y-136703571D01*
X110910142Y-135846428D01*
X111838714Y-135846428D01*
X112410142Y-137203571D02*
X112481571Y-137275000D01*
X112624428Y-137346428D01*
X112981571Y-137346428D01*
X113124428Y-137275000D01*
X113195857Y-137203571D01*
X113267285Y-137060714D01*
X113267285Y-136917857D01*
X113195857Y-136703571D01*
X112338714Y-135846428D01*
X113267285Y-135846428D01*
D12*
%TO.P,J1,1,Pin_1*%
%TO.N,GND*%
X101854000Y-126238000D03*
%TO.P,J1,2,Pin_2*%
%TO.N,RX_KNX*%
X104394000Y-126238000D03*
%TO.P,J1,3,Pin_3*%
%TO.N,unconnected-(J1-Pad3)*%
X106934000Y-126238000D03*
%TO.P,J1,4,Pin_4*%
%TO.N,TX_KNX*%
X109474000Y-126238000D03*
%TO.P,J1,5,Pin_5*%
%TO.N,+5V*%
X112014000Y-126238000D03*
%TO.P,J1,6,Pin_6*%
%TO.N,unconnected-(J1-Pad6)*%
X112014000Y-123698000D03*
%TO.P,J1,7,Pin_7*%
%TO.N,unconnected-(J1-Pad7)*%
X109474000Y-123698000D03*
%TO.P,J1,8,Pin_8*%
%TO.N,unconnected-(J1-Pad8)*%
X106934000Y-123698000D03*
%TO.P,J1,9,Pin_9*%
%TO.N,unconnected-(J1-Pad9)*%
X104394000Y-123698000D03*
D13*
%TO.P,J1,10,Pin_10*%
%TO.N,unconnected-(J1-Pad10)*%
X101854000Y-123698000D03*
%TD*%
%TO.P,J3,1,Pin_1*%
%TO.N,+3V3*%
X116840000Y-87408000D03*
D12*
%TO.P,J3,2,Pin_2*%
%TO.N,GND*%
X114300000Y-87408000D03*
%TO.P,J3,3,Pin_3*%
%TO.N,SEN_SCL*%
X111760000Y-87408000D03*
%TO.P,J3,4,Pin_4*%
%TO.N,SEN_SDA*%
X109220000Y-87408000D03*
%TO.P,J3,5,Pin_5*%
%TO.N,GND*%
X106680000Y-87408000D03*
%TD*%
D13*
%TO.P,J2,1,Pin_1*%
%TO.N,CDS*%
X134874000Y-117094000D03*
D12*
%TO.P,J2,2,Pin_2*%
%TO.N,+5V*%
X132334000Y-117094000D03*
%TO.P,J2,3,Pin_3*%
%TO.N,RCWL_OUT*%
X129794000Y-117094000D03*
%TO.P,J2,4,Pin_4*%
%TO.N,GND*%
X127254000Y-117094000D03*
%TO.P,J2,5,Pin_5*%
%TO.N,unconnected-(J2-Pad5)*%
X124714000Y-117094000D03*
%TD*%
D14*
%TO.P,U1,1,~{RST}*%
%TO.N,unconnected-(U1-Pad1)*%
X72748000Y-87884000D03*
D15*
%TO.P,U1,2,A0*%
%TO.N,unconnected-(U1-Pad2)*%
X72748000Y-90424000D03*
%TO.P,U1,3,D0*%
%TO.N,unconnected-(U1-Pad3)*%
X72748000Y-92964000D03*
%TO.P,U1,4,SCK/D5*%
%TO.N,unconnected-(U1-Pad4)*%
X72748000Y-95504000D03*
%TO.P,U1,5,MISO/D6*%
%TO.N,unconnected-(U1-Pad5)*%
X72748000Y-98044000D03*
%TO.P,U1,6,MOSI/D7*%
%TO.N,unconnected-(U1-Pad6)*%
X72748000Y-100584000D03*
%TO.P,U1,7,CS/D8*%
%TO.N,unconnected-(U1-Pad7)*%
X72748000Y-103124000D03*
%TO.P,U1,8,3V3*%
%TO.N,+3V3*%
X72748000Y-105664000D03*
%TO.P,U1,9,5V*%
%TO.N,+5V*%
X95608000Y-105664000D03*
%TO.P,U1,10,GND*%
%TO.N,GND*%
X95608000Y-103124000D03*
%TO.P,U1,11,D4*%
%TO.N,RCWL_OUT*%
X95608000Y-100584000D03*
%TO.P,U1,12,D3*%
%TO.N,SEN_OW*%
X95608000Y-98044000D03*
%TO.P,U1,13,SDA/D2*%
%TO.N,SEN_SDA*%
X95608000Y-95504000D03*
%TO.P,U1,14,SCL/D1*%
%TO.N,SEN_SCL*%
X95608000Y-92964000D03*
%TO.P,U1,15,RX*%
%TO.N,TX_ESP*%
X95608000Y-90424000D03*
%TO.P,U1,16,TX*%
%TO.N,RX_ESP*%
X95608000Y-87884000D03*
%TD*%
D13*
%TO.P,J4,1,Pin_1*%
%TO.N,+3V3*%
X107828000Y-95123000D03*
D12*
%TO.P,J4,2,Pin_2*%
%TO.N,SEN_OW*%
X110368000Y-95123000D03*
%TO.P,J4,3,Pin_3*%
%TO.N,SEN_SDA*%
X112908000Y-95123000D03*
%TO.P,J4,4,Pin_4*%
%TO.N,SEN_SCL*%
X115448000Y-95123000D03*
%TO.P,J4,5,Pin_5*%
%TO.N,GND*%
X117988000Y-95123000D03*
%TD*%
D16*
%TO.N,SEN_SCL*%
X111826000Y-91501000D03*
%TO.N,SEN_OW*%
X104521000Y-95504000D03*
%TO.N,+3V3*%
X100076000Y-113030000D03*
%TO.N,GND*%
X86106000Y-118999000D03*
%TO.N,+5V*%
X100965000Y-99441000D03*
X97917000Y-120650000D03*
X97917000Y-105664000D03*
X89027000Y-122555000D03*
%TO.N,RX_KNX*%
X104394000Y-113783000D03*
%TO.N,TX_KNX*%
X106807000Y-118491000D03*
%TO.N,+3V3*%
X93726000Y-117348000D03*
X102997000Y-113030000D03*
%TD*%
D17*
%TO.N,SEN_SCL*%
X96751000Y-91821000D02*
X95608000Y-92964000D01*
X111506000Y-91821000D02*
X96751000Y-91821000D01*
X111826000Y-91501000D02*
X111506000Y-91821000D01*
%TO.N,SEN_OW*%
X104521000Y-93091000D02*
X104775000Y-92837000D01*
X104521000Y-95504000D02*
X104521000Y-93091000D01*
X104775000Y-92837000D02*
X100815000Y-92837000D01*
X108082000Y-92837000D02*
X104775000Y-92837000D01*
X100815000Y-92837000D02*
X95608000Y-98044000D01*
X110368000Y-95123000D02*
X108082000Y-92837000D01*
%TO.N,+3V3*%
X120142000Y-97663000D02*
X108077000Y-97663000D01*
X120396000Y-97409000D02*
X120142000Y-97663000D01*
X108077000Y-97663000D02*
X107828000Y-97414000D01*
X119285000Y-87408000D02*
X120396000Y-88519000D01*
X107828000Y-97414000D02*
X107828000Y-95123000D01*
X116840000Y-87408000D02*
X119285000Y-87408000D01*
X120396000Y-88519000D02*
X120396000Y-97409000D01*
%TO.N,RCWL_OUT*%
X119507000Y-112522000D02*
X127635000Y-112522000D01*
X105537000Y-98552000D02*
X119507000Y-112522000D01*
X127635000Y-112522000D02*
X129794000Y-114681000D01*
X96139000Y-100584000D02*
X98171000Y-98552000D01*
X98171000Y-98552000D02*
X105537000Y-98552000D01*
X129794000Y-114681000D02*
X129794000Y-117094000D01*
X95608000Y-100584000D02*
X96139000Y-100584000D01*
%TO.N,GND*%
X107569000Y-114046000D02*
X105537000Y-112014000D01*
X105283000Y-107569000D02*
X93345000Y-107569000D01*
X125603000Y-114046000D02*
X107569000Y-114046000D01*
X127254000Y-115697000D02*
X125603000Y-114046000D01*
X105537000Y-107823000D02*
X105283000Y-107569000D01*
X127254000Y-117094000D02*
X127254000Y-115697000D01*
X105537000Y-112014000D02*
X105537000Y-107823000D01*
%TO.N,RX_KNX*%
X100711000Y-128651000D02*
X101981000Y-128651000D01*
X101981000Y-128651000D02*
X104394000Y-126238000D01*
X99695000Y-121920000D02*
X98933000Y-122682000D01*
X105156000Y-120904000D02*
X104140000Y-121920000D01*
X105156000Y-117094000D02*
X105156000Y-120904000D01*
X104140000Y-121920000D02*
X99695000Y-121920000D01*
X104394000Y-116332000D02*
X105156000Y-117094000D01*
X98933000Y-122682000D02*
X98933000Y-126873000D01*
X104394000Y-113783000D02*
X104394000Y-116332000D01*
X98933000Y-126873000D02*
X100711000Y-128651000D01*
%TO.N,TX_KNX*%
X110773511Y-127537511D02*
X109474000Y-126238000D01*
X114397489Y-127537511D02*
X110773511Y-127537511D01*
X115316000Y-120269000D02*
X115316000Y-126619000D01*
X106807000Y-118491000D02*
X113538000Y-118491000D01*
X113538000Y-118491000D02*
X115316000Y-120269000D01*
X115316000Y-126619000D02*
X114397489Y-127537511D01*
%TO.N,+5V*%
X90805000Y-120777000D02*
X89027000Y-122555000D01*
X97790000Y-120777000D02*
X90805000Y-120777000D01*
X97917000Y-120650000D02*
X97790000Y-120777000D01*
%TO.N,GND*%
X87503000Y-115824000D02*
X86106000Y-117221000D01*
X93345000Y-107569000D02*
X93345000Y-112776000D01*
X86106000Y-117221000D02*
X86106000Y-118999000D01*
X90297000Y-115824000D02*
X87503000Y-115824000D01*
X93345000Y-112776000D02*
X90297000Y-115824000D01*
X93345000Y-104521000D02*
X94742000Y-103124000D01*
X93345000Y-107569000D02*
X93345000Y-104521000D01*
X94742000Y-103124000D02*
X95608000Y-103124000D01*
%TO.N,+5V*%
X99314000Y-99441000D02*
X97917000Y-100838000D01*
X100965000Y-99441000D02*
X99314000Y-99441000D01*
X97917000Y-100838000D02*
X97917000Y-105664000D01*
%TO.N,+3V3*%
X98425000Y-113157000D02*
X96647000Y-114935000D01*
X102997000Y-113030000D02*
X98552000Y-113030000D01*
X95631000Y-117348000D02*
X93726000Y-117348000D01*
X96647000Y-114935000D02*
X96647000Y-116332000D01*
X96647000Y-116332000D02*
X95631000Y-117348000D01*
X98552000Y-113030000D02*
X98425000Y-113157000D01*
%TD*%
M02*
