%TF.GenerationSoftware,KiCad,Pcbnew,(6.0.0)*%
%TF.CreationDate,2022-04-16T20:40:41+02:00*%
%TF.ProjectId,bewegungsmelder,62657765-6775-46e6-9773-6d656c646572,rev?*%
%TF.SameCoordinates,Original*%
%TF.FileFunction,Soldermask,Bot*%
%TF.FilePolarity,Negative*%
%FSLAX46Y46*%
G04 Gerber Fmt 4.6, Leading zero omitted, Abs format (unit mm)*
G04 Created by KiCad (PCBNEW (6.0.0)) date 2022-04-16 20:40:41*
%MOMM*%
%LPD*%
G01*
G04 APERTURE LIST*
%ADD10O,1.700000X1.700000*%
%ADD11R,1.700000X1.700000*%
%ADD12R,2.000000X2.000000*%
%ADD13O,2.000000X1.600000*%
G04 APERTURE END LIST*
D10*
%TO.C,J1*%
X101854000Y-126238000D03*
X104394000Y-126238000D03*
X106934000Y-126238000D03*
X109474000Y-126238000D03*
X112014000Y-126238000D03*
X112014000Y-123698000D03*
X109474000Y-123698000D03*
X106934000Y-123698000D03*
X104394000Y-123698000D03*
D11*
X101854000Y-123698000D03*
%TD*%
%TO.C,J3*%
X116840000Y-87408000D03*
D10*
X114300000Y-87408000D03*
X111760000Y-87408000D03*
X109220000Y-87408000D03*
X106680000Y-87408000D03*
%TD*%
D11*
%TO.C,J2*%
X134874000Y-117094000D03*
D10*
X132334000Y-117094000D03*
X129794000Y-117094000D03*
X127254000Y-117094000D03*
X124714000Y-117094000D03*
%TD*%
D12*
%TO.C,U1*%
X72748000Y-87884000D03*
D13*
X72748000Y-90424000D03*
X72748000Y-92964000D03*
X72748000Y-95504000D03*
X72748000Y-98044000D03*
X72748000Y-100584000D03*
X72748000Y-103124000D03*
X72748000Y-105664000D03*
X95608000Y-105664000D03*
X95608000Y-103124000D03*
X95608000Y-100584000D03*
X95608000Y-98044000D03*
X95608000Y-95504000D03*
X95608000Y-92964000D03*
X95608000Y-90424000D03*
X95608000Y-87884000D03*
%TD*%
D11*
%TO.C,J4*%
X107828000Y-95123000D03*
D10*
X110368000Y-95123000D03*
X112908000Y-95123000D03*
X115448000Y-95123000D03*
X117988000Y-95123000D03*
%TD*%
M02*
