%TF.GenerationSoftware,KiCad,Pcbnew,(6.0.0)*%
%TF.CreationDate,2022-04-16T20:40:41+02:00*%
%TF.ProjectId,bewegungsmelder,62657765-6775-46e6-9773-6d656c646572,rev?*%
%TF.SameCoordinates,Original*%
%TF.FileFunction,Soldermask,Top*%
%TF.FilePolarity,Negative*%
%FSLAX46Y46*%
G04 Gerber Fmt 4.6, Leading zero omitted, Abs format (unit mm)*
G04 Created by KiCad (PCBNEW (6.0.0)) date 2022-04-16 20:40:41*
%MOMM*%
%LPD*%
G01*
G04 APERTURE LIST*
G04 Aperture macros list*
%AMRoundRect*
0 Rectangle with rounded corners*
0 $1 Rounding radius*
0 $2 $3 $4 $5 $6 $7 $8 $9 X,Y pos of 4 corners*
0 Add a 4 corners polygon primitive as box body*
4,1,4,$2,$3,$4,$5,$6,$7,$8,$9,$2,$3,0*
0 Add four circle primitives for the rounded corners*
1,1,$1+$1,$2,$3*
1,1,$1+$1,$4,$5*
1,1,$1+$1,$6,$7*
1,1,$1+$1,$8,$9*
0 Add four rect primitives between the rounded corners*
20,1,$1+$1,$2,$3,$4,$5,0*
20,1,$1+$1,$4,$5,$6,$7,0*
20,1,$1+$1,$6,$7,$8,$9,0*
20,1,$1+$1,$8,$9,$2,$3,0*%
G04 Aperture macros list end*
%ADD10O,1.700000X1.700000*%
%ADD11R,1.700000X1.700000*%
%ADD12RoundRect,0.237500X-0.237500X0.300000X-0.237500X-0.300000X0.237500X-0.300000X0.237500X0.300000X0*%
%ADD13RoundRect,0.250000X0.450000X-0.350000X0.450000X0.350000X-0.450000X0.350000X-0.450000X-0.350000X0*%
%ADD14R,2.000000X2.000000*%
%ADD15O,2.000000X1.600000*%
%ADD16RoundRect,0.150000X-0.150000X0.587500X-0.150000X-0.587500X0.150000X-0.587500X0.150000X0.587500X0*%
%ADD17RoundRect,0.250000X-0.337500X-0.475000X0.337500X-0.475000X0.337500X0.475000X-0.337500X0.475000X0*%
%ADD18RoundRect,0.250000X-0.350000X-0.450000X0.350000X-0.450000X0.350000X0.450000X-0.350000X0.450000X0*%
%ADD19RoundRect,0.250000X-0.475000X0.337500X-0.475000X-0.337500X0.475000X-0.337500X0.475000X0.337500X0*%
%ADD20R,1.500000X1.000000*%
%ADD21RoundRect,0.150000X-0.587500X-0.150000X0.587500X-0.150000X0.587500X0.150000X-0.587500X0.150000X0*%
%ADD22RoundRect,0.150000X0.150000X-0.587500X0.150000X0.587500X-0.150000X0.587500X-0.150000X-0.587500X0*%
G04 APERTURE END LIST*
D10*
%TO.C,J1*%
X101854000Y-126238000D03*
X104394000Y-126238000D03*
X106934000Y-126238000D03*
X109474000Y-126238000D03*
X112014000Y-126238000D03*
X112014000Y-123698000D03*
X109474000Y-123698000D03*
X106934000Y-123698000D03*
X104394000Y-123698000D03*
D11*
X101854000Y-123698000D03*
%TD*%
%TO.C,J3*%
X116840000Y-87408000D03*
D10*
X114300000Y-87408000D03*
X111760000Y-87408000D03*
X109220000Y-87408000D03*
X106680000Y-87408000D03*
%TD*%
D11*
%TO.C,J2*%
X134874000Y-117094000D03*
D10*
X132334000Y-117094000D03*
X129794000Y-117094000D03*
X127254000Y-117094000D03*
X124714000Y-117094000D03*
%TD*%
D12*
%TO.C,C1*%
X87630000Y-128323000D03*
X87630000Y-130048000D03*
%TD*%
D13*
%TO.C,R4*%
X101981000Y-120523000D03*
X101981000Y-118523000D03*
%TD*%
D14*
%TO.C,U1*%
X72748000Y-87884000D03*
D15*
X72748000Y-90424000D03*
X72748000Y-92964000D03*
X72748000Y-95504000D03*
X72748000Y-98044000D03*
X72748000Y-100584000D03*
X72748000Y-103124000D03*
X72748000Y-105664000D03*
X95608000Y-105664000D03*
X95608000Y-103124000D03*
X95608000Y-100584000D03*
X95608000Y-98044000D03*
X95608000Y-95504000D03*
X95608000Y-92964000D03*
X95608000Y-90424000D03*
X95608000Y-87884000D03*
%TD*%
D16*
%TO.C,Q1*%
X102931000Y-114632500D03*
X101031000Y-114632500D03*
X101981000Y-116507500D03*
%TD*%
D17*
%TO.C,R7*%
X91440000Y-122555000D03*
X93515000Y-122555000D03*
%TD*%
D18*
%TO.C,R2*%
X101092000Y-107950000D03*
X103092000Y-107950000D03*
%TD*%
%TO.C,R1*%
X101235000Y-95504000D03*
X103235000Y-95504000D03*
%TD*%
D19*
%TO.C,R6*%
X88646000Y-117475000D03*
X88646000Y-119550000D03*
%TD*%
D18*
%TO.C,R5*%
X101219000Y-97790000D03*
X103219000Y-97790000D03*
%TD*%
D20*
%TO.C,D1*%
X90006000Y-127432000D03*
X90006000Y-130632000D03*
X94906000Y-130632000D03*
X94906000Y-127432000D03*
%TD*%
D11*
%TO.C,J4*%
X107828000Y-95123000D03*
D10*
X110368000Y-95123000D03*
X112908000Y-95123000D03*
X115448000Y-95123000D03*
X117988000Y-95123000D03*
%TD*%
D18*
%TO.C,R3*%
X101092000Y-104775000D03*
X103092000Y-104775000D03*
%TD*%
D21*
%TO.C,Q3*%
X91391500Y-117414000D03*
X91391500Y-119314000D03*
X93266500Y-118364000D03*
%TD*%
D22*
%TO.C,Q2*%
X101219000Y-102362000D03*
X103119000Y-102362000D03*
X102169000Y-100487000D03*
%TD*%
M02*
