%TF.GenerationSoftware,KiCad,Pcbnew,(6.0.0)*%
%TF.CreationDate,2022-04-16T20:40:41+02:00*%
%TF.ProjectId,bewegungsmelder,62657765-6775-46e6-9773-6d656c646572,rev?*%
%TF.SameCoordinates,Original*%
%TF.FileFunction,Legend,Bot*%
%TF.FilePolarity,Positive*%
%FSLAX46Y46*%
G04 Gerber Fmt 4.6, Leading zero omitted, Abs format (unit mm)*
G04 Created by KiCad (PCBNEW (6.0.0)) date 2022-04-16 20:40:41*
%MOMM*%
%LPD*%
G01*
G04 APERTURE LIST*
%ADD10C,0.150000*%
%ADD11C,0.120000*%
G04 APERTURE END LIST*
D10*
%TO.C,J1*%
X98976380Y-124634666D02*
X99690666Y-124634666D01*
X99833523Y-124587047D01*
X99928761Y-124491809D01*
X99976380Y-124348952D01*
X99976380Y-124253714D01*
X99976380Y-125634666D02*
X99976380Y-125063238D01*
X99976380Y-125348952D02*
X98976380Y-125348952D01*
X99119238Y-125253714D01*
X99214476Y-125158476D01*
X99262095Y-125063238D01*
X101354000Y-130556095D02*
X101306380Y-130460857D01*
X101306380Y-130318000D01*
X101354000Y-130175142D01*
X101449238Y-130079904D01*
X101544476Y-130032285D01*
X101734952Y-129984666D01*
X101877809Y-129984666D01*
X102068285Y-130032285D01*
X102163523Y-130079904D01*
X102258761Y-130175142D01*
X102306380Y-130318000D01*
X102306380Y-130413238D01*
X102258761Y-130556095D01*
X102211142Y-130603714D01*
X101877809Y-130603714D01*
X101877809Y-130413238D01*
X102306380Y-131032285D02*
X101306380Y-131032285D01*
X102306380Y-131603714D01*
X101306380Y-131603714D01*
X102306380Y-132079904D02*
X101306380Y-132079904D01*
X101306380Y-132318000D01*
X101354000Y-132460857D01*
X101449238Y-132556095D01*
X101544476Y-132603714D01*
X101734952Y-132651333D01*
X101877809Y-132651333D01*
X102068285Y-132603714D01*
X102163523Y-132556095D01*
X102258761Y-132460857D01*
X102306380Y-132318000D01*
X102306380Y-132079904D01*
X104846380Y-131151333D02*
X104370190Y-130818000D01*
X104846380Y-130579904D02*
X103846380Y-130579904D01*
X103846380Y-130960857D01*
X103894000Y-131056095D01*
X103941619Y-131103714D01*
X104036857Y-131151333D01*
X104179714Y-131151333D01*
X104274952Y-131103714D01*
X104322571Y-131056095D01*
X104370190Y-130960857D01*
X104370190Y-130579904D01*
X103846380Y-131484666D02*
X104846380Y-132151333D01*
X103846380Y-132151333D02*
X104846380Y-131484666D01*
X108926380Y-130556095D02*
X108926380Y-131127523D01*
X109926380Y-130841809D02*
X108926380Y-130841809D01*
X108926380Y-131365619D02*
X109926380Y-132032285D01*
X108926380Y-132032285D02*
X109926380Y-131365619D01*
X111466380Y-131127523D02*
X111466380Y-130651333D01*
X111942571Y-130603714D01*
X111894952Y-130651333D01*
X111847333Y-130746571D01*
X111847333Y-130984666D01*
X111894952Y-131079904D01*
X111942571Y-131127523D01*
X112037809Y-131175142D01*
X112275904Y-131175142D01*
X112371142Y-131127523D01*
X112418761Y-131079904D01*
X112466380Y-130984666D01*
X112466380Y-130746571D01*
X112418761Y-130651333D01*
X112371142Y-130603714D01*
X111466380Y-131460857D02*
X112466380Y-131794190D01*
X111466380Y-132127523D01*
D11*
X117094000Y-133858000D02*
X119634000Y-131318000D01*
X94234000Y-131318000D02*
X96774000Y-133858000D01*
X103124000Y-124968000D02*
X100524000Y-124968000D01*
X119634000Y-110998000D02*
X94234000Y-110998000D01*
X101854000Y-122368000D02*
X100524000Y-122368000D01*
X96774000Y-133858000D02*
X117094000Y-133858000D01*
X94234000Y-110998000D02*
X94234000Y-131318000D01*
X103124000Y-122368000D02*
X113344000Y-122368000D01*
X103124000Y-122368000D02*
X103124000Y-124968000D01*
X100524000Y-127568000D02*
X113344000Y-127568000D01*
X119634000Y-131318000D02*
X119634000Y-110998000D01*
X113344000Y-122368000D02*
X113344000Y-127568000D01*
X100524000Y-124968000D02*
X100524000Y-127568000D01*
X100524000Y-122368000D02*
X100524000Y-123698000D01*
%TD*%
M02*
