%FSLAX45Y45*%
G04 Gerber Fmt 4.5, Leading zero omitted, Abs format (unit mm)*
G04 Created by KiCad (PCBNEW (6.0.0)) date 2022-04-16 20:40:48*
%MOMM*%
%LPD*%
G01*
G04 APERTURE LIST*
%TA.AperFunction,Profile*%
%ADD10C,0.100000*%
%TD*%
%ADD11C,0.200000*%
G04 APERTURE END LIST*
D10*
X13230200Y-12687300D02*
G75*
G03*
X13230200Y-12687300I-200000J0D01*
G01*
X8035900Y-12319000D02*
G75*
G03*
X8035900Y-12319000I-200000J0D01*
G01*
X10626700Y-6515100D02*
G75*
G03*
X10626700Y-6515100I-200000J0D01*
G01*
X14553700Y-10031741D02*
G75*
G03*
X14553700Y-10031741I-4000000J0D01*
G01*
D11*
X6806319Y-14347217D02*
X6806319Y-14147217D01*
X6853938Y-14147217D01*
X6882509Y-14156741D01*
X6901557Y-14175788D01*
X6911081Y-14194836D01*
X6920605Y-14232931D01*
X6920605Y-14261503D01*
X6911081Y-14299598D01*
X6901557Y-14318645D01*
X6882509Y-14337693D01*
X6853938Y-14347217D01*
X6806319Y-14347217D01*
X7006319Y-14347217D02*
X7006319Y-14213883D01*
X7006319Y-14251979D02*
X7015843Y-14232931D01*
X7025367Y-14223407D01*
X7044414Y-14213883D01*
X7063462Y-14213883D01*
X7130128Y-14347217D02*
X7130128Y-14213883D01*
X7130128Y-14147217D02*
X7120605Y-14156741D01*
X7130128Y-14166264D01*
X7139652Y-14156741D01*
X7130128Y-14147217D01*
X7130128Y-14166264D01*
X7253938Y-14347217D02*
X7234890Y-14337693D01*
X7225367Y-14318645D01*
X7225367Y-14147217D01*
X7358700Y-14347217D02*
X7339652Y-14337693D01*
X7330128Y-14318645D01*
X7330128Y-14147217D01*
X7587271Y-14347217D02*
X7587271Y-14147217D01*
X7653938Y-14290074D01*
X7720605Y-14147217D01*
X7720605Y-14347217D01*
X7901557Y-14347217D02*
X7901557Y-14242455D01*
X7892033Y-14223407D01*
X7872986Y-14213883D01*
X7834890Y-14213883D01*
X7815843Y-14223407D01*
X7901557Y-14337693D02*
X7882509Y-14347217D01*
X7834890Y-14347217D01*
X7815843Y-14337693D01*
X7806319Y-14318645D01*
X7806319Y-14299598D01*
X7815843Y-14280550D01*
X7834890Y-14271026D01*
X7882509Y-14271026D01*
X7901557Y-14261503D01*
X7996795Y-14213883D02*
X7996795Y-14413883D01*
X7996795Y-14223407D02*
X8015843Y-14213883D01*
X8053938Y-14213883D01*
X8072986Y-14223407D01*
X8082509Y-14232931D01*
X8092033Y-14251979D01*
X8092033Y-14309122D01*
X8082509Y-14328169D01*
X8072986Y-14337693D01*
X8053938Y-14347217D01*
X8015843Y-14347217D01*
X7996795Y-14337693D01*
X8177748Y-14328169D02*
X8187271Y-14337693D01*
X8177748Y-14347217D01*
X8168224Y-14337693D01*
X8177748Y-14328169D01*
X8177748Y-14347217D01*
X8177748Y-14223407D02*
X8187271Y-14232931D01*
X8177748Y-14242455D01*
X8168224Y-14232931D01*
X8177748Y-14223407D01*
X8177748Y-14242455D01*
M02*
